<svg xmlns="http://www.w3.org/2000/svg" xml:space="preserve" width="992.67065" height="428.13654" viewBox="0 0 992.67064 428.13653"><defs><clipPath id="a" clipPathUnits="userSpaceOnUse"><path d="M0 841.89h1190.55V0H0Z"/></clipPath></defs><g clip-path="url(#a)" transform="matrix(1.33333 0 0 -1.33333 -297.877 774.385)"><path d="M0 0c-9.996 0-18.44 11.382-18.44 24.867 0 13.479 8.444 24.865 18.44 24.865 9.995 0 18.439-11.386 18.439-24.865C18.439 11.382 9.995 0 0 0m20.888 72.993h-73.44c-19.201-11.33-31.544-28.68-31.544-48.126C-84.096-9.182-46.369-36.88 0-36.88c46.367 0 84.097 27.698 84.097 61.747 0 12.196-4.909 23.539-13.253 33.128H20.888Z" style="fill:#0f53a5;fill-opacity:1;fill-rule:nonzero;stroke:none" transform="translate(868.21 296.566)"/><path d="M0 0v-13.624h-21.649C-14.522-12.033-5.709-7.857 0 0m-98.093 19.98v.216h.616l-.616-.216m-23.175-30.93c0-.026-.008-.05-.008-.072l.043.91c-.012-.113-.021-.616-.035-.838m-172.463 84.707h122.335v-18.21h-122.335zm117.132-75.933c-10.105 4.113-23.611 11.569-28.69 23.444h28.69zm-107.274-.272v22.95h22.66c-3.3-8.316-9.883-18.876-22.66-22.95m-113.575 51.134h1.415c-.005-.371-.005-.71-.01-1.003-.45.347-.932.671-1.405 1.003m1.137-67.471c-3.682.02-8.134.039-15.121.066 4.639.837 10.053 2.736 15.14 5.95-.004-2.008-.019-4.648-.019-6.016m-149.833-14.887h42.83c.976-3.724 2.505-7.445 4.663-10.866h-47.364c.182 1.315.746 2.545.746 3.893 0 2.388-.325 4.716-.875 6.973m193.653 116.731 4.71.284v-3.838H-420.7V91.55c6.829 2.967 11.965 6.427 15.7 9.59 21.487-19.649 51.108-18.168 52.509-18.081m181.095 39.822h-121.723v4.438h121.723zM58.612-9.187H78.2V29.53H58.612v64.274H0V38.125c-5.589 9.532-15.499 17.422-31.294 17.422h-86.082v26.092c0 4.428-1.534 7.968-3.582 11.094h8.479v29.163s-3.14.334-5.714.612v17.689c0 12.045-10.272 19.616-19.819 21.556l-.955.196H-347.264s-.048-2.092-.12-5.095h-121.607v-33.949s18.889-.347 28.22-.52c-7.154-3.239-15.997-4.659-20.258-4.913l-9.139-.54-.024-9.161v-5.586h-.11l.11-9.801v-8.19h.091l.124-10.989c0-7.975 3.195-13.723 7.565-17.658h-51.165V15.911h23.715c-2.324-1.593-4.524-3.591-6.523-5.963-21.563-.058-87.745-.25-101.206-.288v68.228h-63.318l-1.413-71.661c0-28.733 23.63-39.569 39.51-39.894h19.2c-.548-2.262-.877-4.59-.877-6.978 0-1.348.566-2.578.747-3.893h-62.561v-43.608h196.341v29.39c13.534-.004 59.965-.009 72.996-.009v-11.964l.44-1.407c2.214-7.125 11.358-20.6 30.09-20.6 10.866.343 22.08 4.971 26.58 14.173 3.764-6.828 11.344-14.173 24.533-14.173 16.092.429 32.059 7.766 32.059 23.178v20.556c13.154 1.39 36.558 6.431 53.52 24.012 8.8-8.265 25.556-18.779 53.451-22.925v-22.414l.118-.756c1.196-7.488 8.954-21.651 29.801-21.651 13.968 0 28.998 7.25 28.998 23.178v39.42c1.297-2.667 2.912-5.327 5.19-7.823 6.838-7.51 16.651-11.319 29.166-11.319H-.612v-14.998H58.612z" style="fill:#0f53a5;fill-opacity:1;fill-rule:nonzero;stroke:none" transform="translate(889.71 418.84)"/><path d="M0 0c-15.553 0-28.157 15.485-28.157 34.584 0 19.102 12.604 34.582 28.157 34.582 15.552 0 28.158-15.48 28.158-34.582C28.158 15.485 15.552 0 0 0m0 86.61c-41.08 0-74.379-23.293-74.379-52.026 0-28.74 33.299-52.031 74.379-52.031 41.079 0 74.378 23.291 74.378 52.031C74.378 63.317 41.079 86.61 0 86.61" style="fill:#fff;fill-opacity:1;fill-rule:nonzero;stroke:none" transform="translate(868.21 286.85)"/><path d="M0 0c18.335-24.682 51.826-22.664 51.826-22.664v15.301c-31.468 0-38.053 24.388-38.053 24.388h38.77v14.691H-54.374V17.025l38.641-.712C-18.909-5.628-55.574-7.649-55.574-7.649v-13.86C-11.984-21.509 0 0 0 0" style="fill:#fff;fill-opacity:1;fill-rule:nonzero;stroke:none" transform="translate(484.811 534.26)"/><path d="M0 0h28.87v-29.159h35.226v63.228H29.157l-.574-24.54H0Z" style="fill:#fff;fill-opacity:1;fill-rule:nonzero;stroke:none" transform="translate(522.778 537.002)"/><path d="M0 0h141.889v11.394H21.161c-7.598 0-6.241 6.238-6.241 6.238v16.442h-30.056l.215-19.153C-14.921.813 0 0 0 0" style="fill:#fff;fill-opacity:1;fill-rule:nonzero;stroke:none" transform="translate(444.373 477.233)"/><path d="M0 0h34.587v22.955c0 10.406-12.243 12.242-12.243 12.242h-50.807v8.57h67.946v10.712l-5.713.613v26.422c0 9.588-12.038 12.034-12.038 12.034h-148.441V78.353H0V54.479h-127.016v-10.1h63.355v-9.487h-63.662V24.791H0Z" style="fill:#fff;fill-opacity:1;fill-rule:nonzero;stroke:none" transform="translate(728.031 477.523)"/><path d="M0 0c0 7.012-3.645 13.146-9.124 16.691h64.842V40.87l-108.041-.307v68.253h-44.073l-1.224-62.131c0-29.383 29.994-29.994 29.994-29.994h36.969C-36.14 13.146-39.786 7.012-39.786 0c0-5.279 2.092-10.046 5.45-13.609h-67.263v-24.176H75.307v24.176H-5.447C-2.09-10.046 0-5.279 0 0" style="fill:#fff;fill-opacity:1;fill-rule:nonzero;stroke:none" transform="translate(334.725 378.195)"/><path d="M0 0v64.273h-39.177V-43.156h-78.047s-9.642 1.531-9.642 9.641c0 0-.764 9.03 9.949 9.03h41.013s23.106 2.141 23.106 23.107c0 0-.76 27.394-27.391 27.394h-86.005V10.1h67.334s8.57-.306 8.57-8.57c0 0 1.836-8.723-8.723-8.723h-37.8s-13.227-1.544-19.892-11.071V0h-19.283v26.016h-39.789v-61.52s-50.195 11.631-50.195 46.675h40.705v14.845h-112.017v-15.61h39.941s-5.662-42.849-45.145-44.073v59.683h-39.482V-.306h-14.385v26.322h-38.871l-.306-74.374-68.558.304s-9.794.92-9.794 9.794c0 0 .612 8.877 8.876 8.877h40.4s25.25 2.142 25.25 25.25c0 0-.157 30.149-30.147 30.149h-83.249V5.815h67.946s6.274 0 6.274-6.275c0 0 1.072-7.192-7.193-7.192h-36.421s-21.544-1.66-21.544-26.757l-.186-7.524s-.919-25.861 21.73-26.933h86.004v-20.2s4.285-13.767 20.813-13.767c0 0 18.976.611 18.976 13.462v69.475h14.385v-69.475s2.754-13.462 17.751-13.462c0 0 22.343.611 22.343 13.462v29.689s43.154-.919 63.05 29.993c0 0 13.773-25.403 63.354-29.688v-29.994s2.144-13.462 20.202-13.462c0 0 19.282 0 19.282 13.462v69.475h18.306c-1.674-2.94-2.774-6.517-2.774-10.94 0 0-2.683-28.541 28.541-28.541h92.127v-14.996H0v55.092h19.588V0Z" style="fill:#fff;fill-opacity:1;fill-rule:nonzero;stroke:none" transform="translate(938.606 438.653)"/></g></svg>